/* XPM */
static char *_4e138c5e23c4443fc0fa10ba8db90b2flD7FR2tfIPf5zUH[] = {
/* columns rows colors chars-per-pixel */
"64 64 46 1 ",
"  c #101010",
". c gray9",
"X c #202020",
"o c gray16",
"O c gray17",
"+ c #343434",
"@ c #373737",
"# c #3A3A3A",
"$ c #3C3C3C",
"% c gray24",
"& c #3F3F3F",
"* c #002770",
"= c #002A76",
"- c #002C7D",
"; c gray25",
": c #434343",
"> c #444444",
", c #464646",
"< c #484848",
"1 c gray29",
"2 c #4C4C4C",
"3 c gray31",
"4 c #505050",
"5 c #535353",
"6 c #565656",
"7 c gray34",
"8 c gray35",
"9 c gray36",
"0 c gray39",
"q c #646464",
"w c #6A6A6A",
"e c #002D80",
"r c #002F87",
"t c #003088",
"y c #003392",
"u c #003699",
"i c #0043A4",
"p c #0048A8",
"a c #0055B2",
"s c #0058B4",
"d c #0063BD",
"f c #0070C7",
"g c #0082D5",
"h c #0089DA",
"j c #1199E7",
"k c #179DEA",
/* pixels */
"%%9944%;;;111133333345858777598888595588854544333212<1;;;;4499%%",
"%%9944;%;;13313344335557877788895878888557844434332211;;;%4499%%",
"11yyyy$dddddddddddddd+********************#dddddddddddddd$yyyy11",
"11yiiy$dgggggghfggggd#*---------e--------*+dggggggggggggd%yiiy11",
"33yiuy$dgjkkkkkkkkkgd+*-rttttttttttttttt-*+dgkkkkkkkkkjgd$yuiy43",
"33yyy$ddfhkkkkkkkjhgd@*-tttttttttttttttt-*+dghjkkkkkkkhfdd$yyy33",
"44%%$d$$dgkkkkkkjhfdd4*=-tttttttttttttte=*4ddfhjkkkkkkgd$$d$$$44",
"44dddd$$dgkkkkkjhfd%44%*=-tttttttttttre=*%44%dfhjkkkkkgd$$dddd44",
"33dggfddfhkkkkjhfd%%uyoo*=erttttttttr-=*ooyy%%dfhjkkkkhfddfggd33",
"34dgjhgghjkkkjhfd$%yuuyo%*=erttrtttr-=*%oyuuy%%dfhjkkkjhgghjgd33",
";;dgkkkkkkkkjhfd$$yuipuy$#*=errrttre=*#$yuppuy$%dfhjkkkkkkkkgd%;",
";;dgkkkkkkkjhfd%%yupaapuy#%*=errtre=*$#yupaapuy%%dfhjkkkkkkkgd;;",
"oodgkkkkkkjhfd1<yupassapuyXX*=----=*XXuupassapuy<<dfhjkkkkkkgdoo",
"oodgkkkkkjhfd%<yupasssaapuyX%******$Xyuiassssapuy<$dfhjkkkkkgdoo",
"OOdgkkkkjhfd>;yupasssapiuyy%4>,>qq44$yyuipasssapuy;>dfhjkkkkgdOO",
"Oodgkkkjhfd%>yupasssapuyy$$$dddddddd$$$yyupasssapuy>%dfhjkkkgdOO",
"++dgkkjhfd>>yupasssapuy%  ddfggggggfdd  $yupasssapuy>>dfhjkkgd++",
"++dgkjhfd$%yuiasssapuy%%ddfghjkkkkjhgfdd$$yupasssapuy%%dfhjkgd++",
"%%dgggfd44yupasssapuy%;dfghjkkkkkkkkjhgfd>$yupaassapuy33dfgggd%%",
"%;ddddd%4yupasssapuy%%dfhjkkkkkkkkkkkkjhfd%%yupasssaiuy4%ddddd%;",
">>13..q0yupasssapuy$%dfhjkkkkkkkkkkkkkkjhfd$$yupasssapuy00..42;>",
">;*****0yypassspuy%%dfhjkkkkkkkkkkkkkkkkjhfd$$yupsssapuy0*****>;",
">>*---*%1yupasaiy$>dfhjkkkkkkkkkkkkkkkkkkjhfd>$yiasapuy1%*---*1>",
">1*-r-=*13yupapuy$dfhjkkkkkkkkkkkkkkkkkkkkjhfd$yupapuy11*=-r-*1>",
"%%*-tte=*%;yupiy$$dfjkkkkkkkkkkkkkkkkkkkkkkjgd$$yppuy>%*=ert-*%%",
"%;*-ttte=*;1yuuy$dfhkkkkkkkkkkkkkkkkkkkkkkkkhfd$yuuy;;*=ertt-*;%",
"+#*-tttte=*%;yy#0fhjkkkkkkkkkkkkkkkkkkkkkkkkjgd0$yu;%*=erttt-*#+",
"##*-ttttte=*;;%%sfhkkkkkkkkkkkkkkkkkkkkkkkkkkhfd$$;;*=ertttt-*+#",
"+#*-tttttre=*%wdfhjkkkkkkkkkkkkkkkkkkkkkkkkkkjhfdw$*=erttttt-*#+",
"13*-ttttttre=*8dhjkkkkkkkkkkkkkkkkkkkkkkkkkkkkjgd8*=ertttttt-*34",
";;*-tttttttr-*9dgkkkkkkkkkkkkkkkkkkkkkkkkkkkkkkgd9*-rtttttrt-*%>",
">>*-tttttttt-*9dgkkkkkkkkkkkkkkkkkkkkkkkkkkkkkkgd9*-ttttttrr-*1>",
"$$*-tttttttt-*;dgkkkkkkkkkkkkkkkkkkkkkkkkkkkkkkgd>*-tttttttt-*%$",
"#%*-tttttttt-*>dgkkkkkkkkkkkkkkkkkkkkkkkkkkkkkkgd;*-rttttttt-*#$",
"+@*-ttttttte=*wdgjkkkkkkkkkkkkkkkkkkkkkkkkkkkkjgdw*=ettttttt-*+#",
"@@*-tttttr-=*%wdfhjkkkkkkkkkkkkkkkkkkkkkkkkkkjhfdw%*=-tttttt-*#+",
"@@*-ttttre=*>;%%dfhkkkkkkkkkkkkkkkkkkkkkkkkkkhfd%$;;*=-ttttt-*+#",
"@@*-tttte=*%;yy%qdgjkkkkkkkkkkkkkkkkkkkkkkkkjgdq$yy;%*=-rttt-*#+",
";%*-ttte=*;>yuuy%dfhkkkkkkkkkkkkkkkkkkkkkkkkhfd$yuuy>:*=ertt-*%%",
"%%*-tte=*%;yupiy$%dgjkkkkkkkkkkkkkkkkkkkkkkjgd$$yipuy:%*=ett-*%%",
"<<*-r-=*11yupapuy%dfhjkkkkkkkkkkkkkkkkkkkkjhfd$yupapuy11*=-r-*><",
"<>*---*%1yupasaiy#>dfhjkkkkkkkkkkkkkkkkkkjhfd>$yiasaiuy1%*---*<>",
";>*****0yupassspuu%#dfhjkkkkkkkkkkkkkkkkjhfd$$yupsssapuyq*****>>",
">>31..00yupasssaiuy%%dfhjkkkkkkkkkkkkkkjhfd$%yupassaapyy00..23>;",
"%%ddddd%4ruiasssapuy%$dfhjkkkkkkkkkkkkjhfd$$yupasssapuu4$ddddd%%",
"%%dgggfd44uupassaapuy$;dfghjkkkkkkkkjhgfd;$yupasssapuy42dfgggd%%",
"@+dgkjhfd%%yupasssapuy$$ddfghjkkkkjhgfdd$$yupasssapuy%$dfhjkgd#+",
"++dgkkjhfd>,yupassaapuy$  ddfggggggfdd  $yupaassapuy>>dfhjkkgd++",
"oOdgkkkjhfd%%yupaassapuyy%$$dddddddd#%%yyupassaapuy>%dfhjkkkfsOO",
"OOdgkkkkjhfd>;yupasssappuyy$4>,>qq33%yyuppassaapuy>>dfhjkkkkhfOO",
"oodgkkkkkjhfd%2yupaasssapuyX%******%Xyupaasssapuy<%dfhjkkkkkgdOO",
"oodgkkkkkkjhfd>1yupassapuyXX*=----=*XXyupassapuy<<dfhjkkkkkkgdoo",
";;dgkkkkkkkjhfd%$yupaapuy#%*=ertrr-=*%#yupaapuy$%dfhjkkkkkkkgd;;",
";;dgkkkkkkkkjhfd$$yuppuy$#*=erttttte=*#%yuppuy$$dfhjkkkkkkkkgd;;",
"43dgjhgghjkkkjhfd$$yuuyo$*=-rttttttre=*%oyuuy%%dfhjkkkjhgghjgd44",
"44dggfddfhkkkkjhfd;;yyoo*=-rrtttttttr-=*ooyy%%dfhjkkkkhfddfggd44",
"44dddd$$dgkkkkkjhfd%34%*=etttttttttttre=*%44%dfhjkkkkkgd%#dddd44",
"44$$$d$$dgkkkkkkjhfdd4*=erttttttttttttre=*4ddfhjkkkkkkgd%%d$$$44",
"44yyy$ddfhkkkkkkkjhgd+*-rttttttttttttttr-*+dghjkkkkkkkhfdd$yyy33",
"33yiuy$dgjkkkkkkkkkgd+*-tttttttttttttttt-*@dgkkkkkkkkkjgd$yuiy33",
"11yiiy%dggggggggggggd@*-----------------e*@dghhfggggggggd%yiiy<1",
"11yyyy%dddddddddddddd@********************@ddsfdddddddddd%yyyy11",
"%%9944;;%;<121443334555877778888858858588555443333221<>;%;4499%%",
"%$9944;;;;11213433345585777789888858885857543333242211;;%;4499%%"
};
