/* XPM */
static char *_a444fdd171f4d90d42567307b669e198dIw31zWbFvUORBr[] = {
/* columns rows colors chars-per-pixel */
"64 64 6 1 ",
"  c #301610",
". c #7E4A21",
"X c #7F4B22",
"o c #915B2C",
"O c #B07440",
"+ c #F4CD89",
/* pixels */
"............................................................... ",
".+++++++++++++++++++++++++++++++++++++++++++++++++++++++++++++. ",
".+OOOOOOOOOOOOOOOOOOOOOOOOOOOOOOOOOOOOOOOOOOOOOOOOOOOOOOOOOOO+. ",
".+OOOOOOOOOOOoooooooXXXXXXXooooooooooooooooooooooOOOOOOOOOOOO+. ",
".+ooooooo....o..XXXXXXXXXXXXXXXXXXXXXXXXXXoXoooooooooooooooooO. ",
".+OOooooooooooooOoOOOOOOOOOOOOOOoOoXXXXoooooooooooooooooOOOOO+. ",
".+OOOOOOOOOOOOOOOOOOOOOOOOOoooooooooooooooooOoOOOOOOOOOOOOOOO+. ",
".+OOOOOOOOOOOOOOOOoooooooooooooooooooooooooooooooooooXXXXXXXXO. ",
".OXX........o...XXXXXooooooooooooooooooooXXXXXXXXXXXXXXXXXXXXO. ",
".OXX............XXXXXXXXXXXXXXXXXXXXXXXXXXXXXXXoooooooooooXXXO. ",
".+OOOOO.....oooooooooooooooooXXXXXXXXXXXXXXoooooooooooooOOOOO+. ",
".+oooooooooooooooooooooooooooooooooooooooooooooooOOOOOOOOOOOO+. ",
".+ooooooooooooooooooooooooooooooOOOOOOOOOOOOOOOOOOOOOOOOOOOOO+. ",
".+OOOOOOOOOOOOOOOOOOOOOOOOOOOOOOOOOOOOOOOOOOOOOOOOOOOOOOOOOOO+. ",
".+oooooooooooooooooooooooooooooooooooooooooooooooooooooooooooO. ",
".+oooooooooooooooooooooooooooooooooooooooooooooooooooooooooooO. ",
".+oooooooooooooooooooooooooooooooooooooooooooooooooooooooooooO. ",
".+ooooooooOOOOOOOOOOOOOoooooooooooooooooooooooooooooooOOOOOOO+. ",
".+OOOOOOOOOOOOOoooooooOOOOOOOOOOOOOOOOOOOOOOOOOOOOOOOOOOOOOOO+. ",
".+OOOOOOooooooooooooooooooooXXXXooooooooooOOOOOOOOOOOOOOOOOOo+. ",
".+oooooooooXoXXXXXXXXXXXXXXXXXXXXXXXXXXXXXXXXXXXXXXooXXoXXXXXO. ",
".+OOOOOOOOOoooXXXXooooooOOOOOOOOOOOOOOOOOooOOOOOOOOOOOOOOOOOO+. ",
".+OOOOOOOOoooooooooooooooooOOOOOOOOOOOOOOOOOOOOOOOOOOOOOOOOOO+. ",
".OXXXXoooooooooooooooooooooOOOooooooooOOOOOOOOOOOOOOOOOOOOOOo+. ",
".OXXXXXXoXXXXXoooooooooooooooooooooXXXXXXXXXXXXXXXXXXXooooXXXO. ",
".+oooXXXXXoooXXoooooooXXXXXXXXXXXXXXXXXXXXXXXXXXXXXXXXXXXXXXXO. ",
".+oooooXXXXXXXXXXXXXXXXXXXXoooooooooooooooooooooooooooooooooo+. ",
".+ooooooooooooooooooooooooooooooooooooooooooooooooooooooooooo+. ",
".+ooOOOOOOOOOOOOOOOOOOOOooooooooooooooooooooooooooooooooooooo+. ",
".+OOOOOOOOOOOOOOOOOOOOOOOOOOOOOOOOOOOOOOOOOOOOOOOOOOOOOOOOOOO+. ",
".+oooooooooooooooooooooooooooooooooooooooooooooooooooooooooooO. ",
".+oooooooooooooooooooooooooooooooooooooooooooooooooooooooooooO. ",
".+oooooooooooooooooooooooooooooooooooooooooooooooooooooooooooO. ",
".+OOOOOoooooOOooooooooooOOOOOOOOOOOOOOOOOOOOOOOOOOOOOOOOOOOOoO. ",
".+OOOOOOOOOOOOOOOOOOOOOOOOOOOOOOOOOOOOOOOOOOOooooooooOOOOOOOO+. ",
".OooooooooOOOOOOOOOOOOOOoooooooooooooooooooooooooooooooooooOO+. ",
".OoXXXXoXXXXXXXXXXXXXXXXXXXXXXXXXXXXXXXXXXXXXXXXXXoooXXXXXooo+. ",
".+OOOOOOOOOOOOOoooooooOoOOOOOOOOOOOOOOOOOOOooooooXXXXXXXooooo+. ",
".+OOOOOOOOOOOOOOOOOOOOOOOOOOOOOOOOOOOOoooooooooooooooooooooOO+. ",
".+ooooOOOOOOOOOOOOOOOOOOOOOOOoooooooooooooooooooooooooooooooo+. ",
".OXXXXXXXXXXXXXXXXXXXXXXXXXXXXXXXooooooooooooooooooooXXXXXXXXO. ",
".OXXXXXXXXXXXXXXXXXXXXXXXXXXXXXXXXXXXXXXXXXXooooooXXXXooXXooo+. ",
".+ooooooooooooooooooooooOOOOOooooooooooooXXXXXXXXXXXXXXXXXXXXO. ",
".+OOOOOOOOOOOOOOOOOOOOOOOOOOOOOOOOOOOOOOOOOOOOOOOOOOOOOoooooO+. ",
".+OOOOOooooooooooooooooooooooooooooooooooooOoOOOOOOOOOOOOOOOO+. ",
".+OOOOOOOOOOOOOOOOOOOOOOOOOOOOOOOOOOOOOOOOOOOOOOOOOOOOOOOOOOO+. ",
".OoooooooooooooooooooooooooooooooooooooooooooooooooooooooooooO. ",
".OoooooooooooooooooooooooooooooooooooooooooooooooooooooooooooO. ",
".OoooooooooooooooooooooooooooooooooooooooooooooooooooooooooooO. ",
".+OOOOOOOOoooooooooOOOOOOOOOOOooooooooooooOOOOOOOOOOooooooOOO+. ",
".+oooOOOOOOOOOOOOOOOOOOOOOOOOOOOOOOOOOOOOOOOOOOOOOOOOOOOOOOOO+. ",
".+ooooooooooooooooooooooooooOOOOOOOOOOOOOOOOOOOOoooooooooooooO. ",
".OXXXXXXXXXXXXXXXXXXXXXXXXXXXXXXXXXXXXooooXXoXXXXXXXXXXXXXXXXO. ",
".+ooooOoOOOOOOOOOOOOOOOOOOOOOOOOOOOOOOOOOOOOOOOOOOOOOOOOOOOooO. ",
".+oooooooooooOOOOOOOOOOOOOOOOOOOOOOOOOOOOOOOOOOOOOOOOOOooooooO. ",
".+ooooooooooooooooooooOOOOOOOOOOOOOOOOOOOOOOoooooooooooooooooO. ",
".+ooooooooooooooooXXXXXXXXXXXXXXXXXXXXXXXXXXXXXooooooooXXooooO. ",
".+oooooXXXXXXXXXXXXXXXXXXXXXXXXXXXXXXXXXXXXXXXXXXXXXXXXXXXXoo+. ",
".OXXXXXXXXoooooooooooooooooooXXXXXXXXXooOOOOooooooooooooXXXXXO. ",
".+OOOOOOOOOOOOOoOOoooooooooooooooOOOOOOOOOOOOOOOOooOoOOOOOOOO+. ",
".+OOOOOOoooooooooooooooooooooooooooooooooooooooooooooooooooOO+. ",
".++++OO++O+OOOOOOOOOOOOOO+O++OO+++++OO+OOOOOOOOOOOO++O++++OO++. ",
"............................................................... ",
"                                                                "
};
