/* XPM */
static char *b28ec38d27cd444ee47b8207f3ec17c3f8UKUUiAMaIJz4yy[] = {
/* columns rows colors chars-per-pixel */
"64 64 10 1 ",
"  c #5E2A2A",
". c #6C3131",
"X c #793D38",
"o c #776157",
"O c #803E2F",
"+ c #8D4835",
"@ c #AC623E",
"# c #91766A",
"$ c #9C7F72",
"% c #C47C44",
/* pixels */
"oooooooooooooooo#ooooooooooooooooooooooooooooooo##oooooooooooooo",
"$$                              o$OOOOOOOOOOOOOOOOOOOOOOOOOOOOOo",
"$$ @@@@@@@@@@@@@@@@@XX@X@@XXXX  o$OOOOO%%%%%%%%%%%%%%%%%%@%@@O.o",
"$$ @XXXXXXXXXXXXXXXXXXXXXXXXXX  o$O%%%%@@@@@++@@+@+++++++++++..o",
"$$ @XXXXXXXXXXXXXXXXXXXXXXXXXX  o$O%+++++++++++++++++++++++++..o",
"$$ @XXXXXX+XXXXXXXXXXXX  XXXXX  o$O%++++++++++++++++O++++++++..o",
"$$ @XXXXXXXXXXXXXXXXXXX  XXXXX  o$O%+++++++++++++++++++++++++..o",
"$$ XXXXXXXXXX XXXXXX+XXXXXXXXX  o$O%+++@+++++O++++++++++++++@..o",
"$$ XXX+XXXXXXXXXXXXXXXXXXXXXX+  o$O%++++++++++++++++++@+++++@..o",
"$$ @XXXXXXXXXXXXXXXXXXXXX XXXX  o$O%++++++++++++OO+++++++++++..o",
"$$ @XXXX XXXXXXXXXXXXXXXXXXXX+  o$O%++O+++++++++OO++++++++++@..o",
"$$ XXXXXXXXX+XXXXXXXXXXXXXXXX+  o$O%+++++++++++++++++++++++++..o",
"$$ @XXXXXXXXXXXXXXXXXXXXXXX+++  o$O%+++++++++++++++@+++++++++..o",
"$$ XXXXXXXXXXXXXXXXXXXX+X++     o$O%%%@%@@@+@++++++++++++++++..o",
"$$                              o$O............................o",
"$$                              o$.............................o",
"$$ooooooooooooooooooooooooooooooo$oooooooooooooooooooooooooooooo",
"OOOOOOOOOOOOOOo#OOOOOOOOOOOOOOOOOOOOOOOOOOOOOOOo$$OOOOOOOOOOOOOO",
"@@%%@%@@@@@@O.o#O@%%%%%%%%%%%%%%%%%%%%@%@@%@OO.o$$O%%%%%%%%%%%%%",
"+++++++++++@..o$O%@+++++++++++++@+++++++++++@..o$$O%@@@+++++++++",
"+++++++++++@..o$O@@+++++++++++++++++++++++++@..o$$O%@+++++++++++",
"++++++++++++..o$O@%@+++++++++++++++++++++++++..o$$O%@+++++++++++",
"+++++++++++@..o$O@@+++++++OO++++++++++++++++@..o$$O@++++++++++++",
"++++++++++++..o$O@@+++++++OO++++++++++@++++++..o$$O@++++++++++++",
"++++++++++++..o$O@@++++++++++++++++++++++++++..o$$O%++++++++++++",
"++++++++++++..o$O@@+++++++++O+++++++++++@+++O..o$$O@++++++++++++",
"++++++++++++..o$O@@+++++++++++++++++++++++++O..o$$O@++++++++++++",
"++++++++++++..o$O@@+++++@+++++++++++++++++++@..o$$O@++++++++++++",
"+++++++++++@..o$O@@++++++++++++++++++++++++@@..o$$OO@@++++++++++",
"++++++++++@@..o$O@@@@@@@+++@+@@++O+OO++++@@@O..o$$OO@@@@@++@@+@+",
"..............o$O..............................o$$O.............",
"..............o$...............................o$$..............",
"ooooooooooooooo$oooooooooooooooooooooooooooooooo$$oooooooooooooo",
"oOOOOOOOOOOOOOOOOOOOOOOOOOOOOOo$OOOOOOOOOOOOOOOOOOOOOOOOOOOOOOOO",
"oO%%%%%%%%%@@%%@@@@@@@@@@@%%O.o$O%%%%%%%%%%%@@%%@@@@@@%%%%%%%OO.",
"oO%@@@@@@@@@@@++++++++++@@@%..o$O%++++++++++++++++++++++++++%%..",
"oO%@+++++++++++++++++++++++@..o$O%+++++++++++++++++++++++++++%..",
"oO%@++++++++++++O+++++++++++..o$O@+++@+++++++++++++++++++++++%..",
"oO@@+++@+++++++++++OO++++@++..o$O%+++++++++O++++++++++++O+++++..",
"oO%@+++++++++++++++OO++++++O..o$O@+++++++++++++++++@++++++++++..",
"oO%++++++@+++++++++++++++++O..o$O@++++++++++++++++++++++++++++..",
"oO@++++++++++++++@+++++++++@..o$O@+++++@++++++++++++++OO++++++..",
"oO%++++O++++++++++++++++++++..o$O@++++++++++++++++++++OO++++++..",
"oO@++++++++++++++++++++++++@..o$O@+++++++++++++++++++++++++++@..",
"oO@++++++++++++++++++++++++@..o$O@+++++++++++++++++++++++++++@..",
"oO@@@++++++OO+OOOO++++@@@+@@..o$O@++OOO+O++OO++++++++@+@@@+@@...",
"oO............................o$O...............................",
"o.............................o$................................",
"ooooooooooooooooooooooooooooooo$oooooooooooooooooooooooooooooooo",
"OOOOOOOOOOOOOOOo$                              o$$OOOOOOOOOOOOOO",
"%%%%%%@%@@%@OO.o$  @@@@@XX@@X@XXXXXXXXXXXXXXXX o$$O@%%%%%%%%%%%%",
"+@++++++++++@..o$ @@XXXXXXXXXXXXXXXXXXXXXXXXXX o$$O%@+++++++++++",
"++++++++++++@..o$ @XXXXXXXXXXXXXXXXXXXXXXX+XXX o$$O@@+++++++++++",
"+++++++++++++..o$ @XXXXXXXXXXXXXXXXXXXXXXXXXXX o$$O@%@++++++++++",
"++++++++++++@..o$ XXXXXXXXX XXXXXXXXXXXXXXXXXX o$$O@@++++++OO+++",
"++++++@++++++..o$ @XXXXXXXXXXXXXXX XXXXXXXXXXX o$$O@@++++++OO+++",
"+++++++++++++..o$ XXXXX+XXXXXXXXXXXXXXXXXXXXXX o$$O@@+++++++++++",
"++++++++@+++O..o$ XXXXXXXXXXXXXXXXXX+XXXXXXXXX o$$O@@++++++++O++",
"++++++++++++O..o$ XXXXXXXXX  XXXXXXXXXXXXXXXXX o$$O@@+++++++++++",
"++++++++++++@..o$ XXXXXXXXX  XXXXXXXXXXX XXXX+ o$$O@@++++@++++++",
"++++++++++++@..o$ ++XXXXXXXXXXXXXXXXXXXXXXXXX+ o$$O@@+++++++++++",
"++O+OO+++@@@O..o$   +++X+XXXXXXXXXXXXXXXXXX++  o$$O@@@@@@+++@+@@",
"...............o$                              o$$O.............",
"...............o$                              o$$.............."
};
