/* XPM */
static char *_abdc1a526cd4d97c6ef6eff4c9f501bklPeknAjqYedSiMv[] = {
/* columns rows colors chars-per-pixel */
"64 64 221 2 ",
"   c #25150E",
".  c #28150F",
"X  c #261711",
"o  c #281711",
"O  c #271811",
"+  c #2B1912",
"@  c #341E15",
"#  c #391F16",
"$  c #362016",
"%  c #3B2117",
"&  c #35221B",
"*  c #3E2318",
"=  c #3F281E",
"-  c #3D2821",
";  c #412317",
":  c #432519",
">  c #49271A",
",  c #45281C",
"<  c #4C2A1B",
"1  c #532D1D",
"2  c #5A2F1E",
"3  c #5C311F",
"4  c #57301D",
"5  c #62331F",
"6  c #432C23",
"7  c #4C2D22",
"8  c #532F21",
"9  c #4B342A",
"0  c #4D3226",
"q  c #543224",
"w  c #5C3323",
"e  c #53352A",
"r  c #5B3629",
"t  c #5D3A2C",
"y  c #55392C",
"u  c #533C33",
"i  c #5C3D31",
"p  c #553F38",
"a  c #4E3C32",
"s  c #633421",
"d  c #6A3621",
"f  c #643825",
"g  c #6B3924",
"h  c #633B2B",
"j  c #6B3D2B",
"k  c #713923",
"l  c #743B23",
"z  c #7B3D24",
"x  c #733E2A",
"c  c #703723",
"v  c #623E30",
"b  c #594339",
"n  c #6C412E",
"m  c #67402F",
"M  c #74422E",
"N  c #7B442D",
"B  c #644233",
"V  c #6C4434",
"C  c #644639",
"Z  c #6C4A3C",
"A  c #67483B",
"S  c #724533",
"D  c #794632",
"F  c #754936",
"G  c #7B4934",
"H  c #734B3B",
"J  c #7C4E3B",
"K  c #7B523F",
"L  c #654D42",
"P  c #694F44",
"I  c #6B5146",
"U  c #6C534A",
"Y  c #725144",
"T  c #7D5444",
"R  c #73564A",
"E  c #75594D",
"W  c #7C5A4C",
"Q  c #7B5648",
"!  c #7C5E51",
"~  c #7E6154",
"^  c #813F24",
"/  c #83452B",
"(  c #844429",
")  c #834B34",
"_  c #834E39",
"`  c #8A4D34",
"'  c #85523D",
"]  c #8C533C",
"[  c #8B5037",
"{  c #93553C",
"}  c #9B5A3D",
"|  c #98563B",
" . c #934F32",
".. c #A15C3D",
"X. c #A9613F",
"o. c #845442",
"O. c #8B5641",
"+. c #855846",
"@. c #8A5944",
"#. c #835B4B",
"$. c #8B5D4A",
"%. c #945B44",
"&. c #9B5D43",
"*. c #925E4A",
"=. c #985740",
"-. c #805F52",
";. c #A25E43",
":. c #8B604D",
">. c #85604D",
",. c #9C6046",
"<. c #93624C",
"1. c #9C644B",
"2. c #856354",
"3. c #8C6454",
"4. c #8D6A5B",
"5. c #8B6758",
"6. c #946552",
"7. c #9B6652",
"8. c #946956",
"9. c #9C6A54",
"0. c #946C5B",
"q. c #9C6E5B",
"w. c #9D715E",
"e. c #A3654B",
"r. c #A3694E",
"t. c #AB6A4C",
"y. c #A66447",
"u. c #B06C49",
"i. c #A46C53",
"p. c #AA6C52",
"a. c #A46E58",
"s. c #A56B55",
"d. c #AC7355",
"f. c #A4725D",
"g. c #AA745C",
"h. c #AD795E",
"j. c #A77156",
"k. c #B27455",
"l. c #B2765D",
"z. c #B37A5C",
"x. c #BB7D5A",
"c. c #B27053",
"v. c #986F61",
"b. c #9C7362",
"n. c #997665",
"m. c #A37562",
"M. c #A87661",
"N. c #A57965",
"B. c #AB7B64",
"V. c #A47B6B",
"C. c #AA7D6A",
"Z. c #B47E63",
"A. c #B97E65",
"S. c #B47E6A",
"D. c #B97F69",
"F. c #B9825F",
"G. c #AD816C",
"H. c #AF8067",
"J. c #B38165",
"K. c #BD8463",
"L. c #B3846C",
"P. c #BD856B",
"I. c #BD8A6C",
"U. c #B78969",
"Y. c #AF8672",
"T. c #A98676",
"R. c #B38672",
"E. c #B48B74",
"W. c #BB8C73",
"Q. c #B78B75",
"!. c #BB9276",
"~. c #BB947B",
"^. c #B89379",
"/. c #C3845D",
"(. c #C28B6B",
"). c #C08562",
"_. c #C6916D",
"`. c #C18C73",
"'. c #C28C78",
"]. c #C49374",
"[. c #C4947B",
"{. c #C2997C",
"}. c #CB9C7B",
"|. c #CA9976",
" X c #CAA17C",
".X c #D5A77F",
"XX c #BC9A83",
"oX c #BFA18C",
"OX c #C39D81",
"+X c #CA9C82",
"@X c #C4A184",
"#X c #CBA484",
"$X c #C3A48B",
"%X c #CCA28A",
"&X c #CBAB8D",
"*X c #CBAA86",
"=X c #D3AB8B",
"-X c #D3A985",
";X c #D9B58C",
":X c #CAAB94",
">X c #CCB396",
",X c #D4B192",
"<X c #D7B997",
"1X c #CCB08D",
"2X c #D2BEA4",
"3X c #CCB4A0",
"4X c #DAC29A",
"5X c #E1C69E",
"6X c #DCC4A4",
"7X c #D9C7A9",
"8X c #DCCFB6",
"9X c #E2C9A5",
"0X c #E5D2AC",
"qX c #EAD9AF",
"wX c #E6DAB7",
"eX c #E4D9C2",
"rX c #F2EDCB",
"tX c #F0EBCD",
"yX c #F1EDE3",
"uX c #F6F2E9",
"iX c #FBFAF6",
/* pixels */
"+ + + + + + + + + . + O O + + + + + + + + X + + . + + . o o X + @ @ @ @ @ @ @ @ @ + + @ + X + + X + X + o + . O O O . + O +   O ",
"$ % % : , < < < < > > > ; * * * * % # # * # # # @ @ @ @ # # # # # * : : : : : : : > : > : ; * # % @ @ @ @ $ > ; $ @ * $ % : $ + ",
"+ @ $ * > 1 4 3 s w 3 3 5 ` 6X` d g s 5 5 2 2 1 1 1 1 > > ; ; ; ; : > > < < < < < < > : : : < 1 4 3 2 > < 1 1 1 1 < ; , * , % O ",
"$ : 2 2 4 3 3 k l z z z ( ;X_.;X^ k z z k l c d 5 5 2 2 1 < 1 < < < > > > : ; ; * ; > > < 2 8 w s s g l z k k k g 3 4 1 < : : + ",
"$ % : , > < 1 4 2 3 w 5 F.(.5 ;X .l c c l l l k k k z k z z z l c c d s 4 2 > ; * # # # @ @ @ # $ $ ; : < 1 < 1 < > 1 > < * , + ",
"$ $ * : , : * * ; * ; h A.n J k.] 1 O.x w 2 5 s s s s 3 5 s s d d d k k k z k d s s s 2 2 1 1 1 > ; ; % # @ # % % % * % * ; : + ",
"+ @ * , * : > < 1 8 1 S $.Y w *.%.o.7.+X1 > > > > < < 1 1 1 1 1 2 5 d d g k z k d g d d s 5 5 d g 5 k g d s d 5 s 4 2 < > 1 % O ",
"$ $ * + ; * 1 ) y.`.D.D.$.8 7 $.M._ x %X&.1 < 1 1 1 1 > > > ; ; ; : > : > 1 2 3 s 5 d 5 c c l k g 5 5 5 5 3 3 1 1 4 2 4 , > @ O ",
"@ * > % * % n }.-XqXu.c.K.Z.e.`.'.s.J i.,X[ x 1 2 2 2 5 3 2 1 > > > > < > ; ; # ; > > > > > > 1 1 3 3 < > < < < < 1 1 < ; > , + ",
"@ $ > I.6.r h $.s u.<X0X=X$.7.OX=X6X9X6XyX<X|.5 5 k 5 5 k k k k d s g d s 5 s 5 2 2 1 ; 1 1 1 1 1 1 2 2 1 1 < 1 < 2 8 1 : : % X ",
"+ $ * <.J @.B.+Xh `.+Xa.8 t j h x { ,X<XqX}.;.N 5 5 k z k z z ^ z ^ z z z z z z l k c c 5 5 2 > > 1 8 1 1 > 1 2 2 2 1 < : : @ + ",
"@ + $ J G < Q +X'.[.Z.` O.7.s.&.) } / ;XrXt.}.(.5 5 5 5 2 2 1 1 < ; ; ; ; ; > > > > > > < > > 1 > > ; ; ; ; > 1 1 < < : : : : X ",
"@ $ + : <.<.h ].z.[.G _ 7.B.a.s.f._ M D rX#X=X=.5 3 s s d d d s 5 5 3 5 5 s 3 1 1 < 1 1 2 4 3 w 2 1 1 2 w 3 2 4 q < : : , ; , + ",
"$ : q t 9.w.J (.|.d.1.d.W.!.W.Q.B.p.=.) qX0X).0X( k s 5 3 5 [ g 5 5 s s 5 s s 2 w s s 2 2 w 3 2 1 1 1 > o.S > * # * * : : * * + ",
"W Y A A 5.B Q V C.q t Q ! 2.5.5.#.Z h r f.2X*.s.a.M.D.g.< h +XA.l.S q 8 2 < < : : : < : : : * * * * # % Q.T @ @ @ @ @ + @ + O X ",
"6 L 6 & & O u 9 n.- - p p b b L b 6 - @ B :X9 y # = Q 6 @ e #.y v.oXT.y @ @ @ @ + + + X X + + + + + @ Z Z u O + X O X X X X X X ",
"@ = K E.8.< T g.OXF h 3.5.b.0.0.$.F h < P.%Xj J e.I.] < 1 *.Z.q.w.G.8XeX>X' 1 , 7 8 q V B 7 % % @ 7 #.>.J 6.* ; ; ; ; ; * # @ X ",
"% @ * @.!.[.) rX].].x e.L.B.B.g.1.&.N | -X0XyXrX_.` d d 5 } x.N j.h.H.B.L. Xz.{ ` ) G t.K.}.[.z.A.p.G 1.Z.P.8 2 8 w w 3 1 ; @ X ",
"$ % : < 8 W.h O.!.W.h m h T +.' ' D g =X].z.<X*Xg 3 5 5 5 w x.} } r.h.J.J.h.,.) s 5 s d ) 1.x t.-X].) %.y.{ 2 w 5 s s 2 w 2 : + ",
"% * $ @ * 3X: : N.n.&XB t 0 q q V ] ].<X].s ~.9Xw : * ; % % 7 8.9.b * 9 r e B , q S n w > V B V x '.(.f [ d s g d 5 2 5 5 1 : + ",
"# # # @ e OXXXS.eXo.6X6Xe.j M ' *X<X<X4Xj N (. Xx 5 5 5 4 1 4 w ] K.J 1 r F V q : < r C.$.* y y 9 6 n.2.W 3.v.B.D.W.I.w < 2 : + ",
"@ ; , > G j.s.7Xd.-Xz. X0X9X0XrX5X XwX4Xz.( z /.-X( 5 5 s 3 3 3 4 n [.2 4 ' S M j s g ].=Xp.g 1.1.8 G L.T 0.3.#.Q 3.7 % : > @ X ",
"# , > > < < w P.O.>X{.M ].e.y.K.{ [ <X<X X,X-X|.;XX.^ ^ ( ^ z z N k.=XN { ' s M [ N 5 5 x ) N g r./ d (.} 8 f Z.[.j > 2 1 w : + ",
"+ * ; ; * ; 7 9.f.V !.h.A.n j W.P.~.O.I.2 2 n { e.s 2 2 3 2 5 x |.-X} ( | z 5 x &.,.i.d f s M 9.6.T < 8 _ 9.'.1.8 < : : < 1 * + ",
"# , , ; : : ; * * * K ,Xa.t t S.r 9.[.S.> > > < < > < 1 1 1 4 w } _.,X,X|.x.} l ` i.G.E.G.] L.f.i.,.{ ;.x.y.g 4 2 2 8 1 < > % + ",
"+ + @ # @ @ $ $ @ $ % t R.e V C.r : q : : : , , > > < < < > < 1 1 4 2 M { z.=X,X{ { ~. X@Xd.XXU.d.z.k.g s s s d f s s s w 1 , @ ",
"@ @ # : : : : : ; * : , I.q 9.<.: : * ; : * ; * ; * ; > ; , > > < < 1 < 1 1 1 e.%X] <.G.B.g.B.J.h.i.,X}./ l k k k k k s 3 ; @ + ",
"% : ; , : , : : > > > > 7.:.%X< : : ; * * % % % $ @ $ $ @ $ $ $ @ $ @ $ @ $ % * 8 f.9.V Z Z Z >.>.T #.[.o.< > < < > , , * @ + + ",
"% : ; * @ # @ % $ $ $ $ q w.B $ $ % % % * * : : : , , > : : > * * * % $ @ @ @ $ $ * #.y < 7 r Q 3.3.0.h.S.r : * : : : : : : : * ",
"# = = * * * * # % % * * * * ; ; ; : : : : : : : , , > , > < 7 < 1 < 1 8 2 1 1 2 1 1 ,.%.w h S J 8.f.N.q.%X1.2 1 < < < < < < < : ",
"# * * : * * * * * * * ; ; * ; ; < r r q 8 < : : ; ; * * * % % % $ % & * $ $ $ * % , 0.B 8 y u i I ~ E A Z Q , @ $ @ @ @ @ $ % @ ",
"+ + + O X X X + O O O O O + 9 b b u y B I R R I H b q $ + + + + + + + + + + O $ C W W 6 9 b a 9 b b a - - L & + O O O O O X X X ",
"+ $ % * % % % $ @ + + @ q m.J , = , y C A I I 8.w.n.b.B.6.K y , $ & @ = < t <.6X1XY.8.0.w.b.b.m.C.C.n.8.8.<.' q > > , ; % $ + + ",
"@ $ % : , : , < , * @ 7 8.G J o.T W ~ 2.5.~ E ~ 4.0.m.B.h.XX2X7X7XoX^.E.E.^.T.2.8.C.G.E.$X&X$XXXOXXXR.Y.N.{ d.{ 3 3 5 s 3 < * + ",
"@ $ % % * > < 1 4 N t.J.J C T <.N.E.R.V.0.5.0.0.4.>.E 3.0.N.G.L.G.L.G.B.w.8.R I I U ~ 4.Y.^.@X:X&X:X&X#X].z.K.x.l 5 5 1 > ; $ @ ",
"> > ; * * * < j y.p.M { j.q.8.3.4.V.Y.Q.Y.Y.N.8.5.0.w.w.0.>.5.0.N.R.~.@X~.E.E.G.b.5.E I I U E 2.v.V.G.Y.B.i.1.K.N d 4 > > , % ; ",
": < 1 1 > r *.+.Z q 4 O.B.L.~.^.C.q.3.:.1.9.r.g.L.B.w.8.f.N.N.w.0.0.b.N.G.!.@X{.~.!.L.N.V.5.R U L U I P b C r C.G J 4 1 < , ; $ ",
"* , 1 2 x [.I.S f w q #.N.C.G.E.W.J.9.' o.:.<.f.g.H.J.J.B.g.f.G.G.G.C.w.0.b.N.G.L.I.W.#X~.W.^.E.Y.n.5.A a e = Y 6 8 6 $ $ $ o $ ",
"$ % ; < I.#X) ) { D S w.N.N.m.M.G.g.j.d.e.*.+.+.7.9.1.i.g.B.J.L.L.Y.G.B.g.g.f.8.6.:.6.g.h.!.{.@X:X&X@XB.1.<.G U.h < H * % % o @ ",
"* * % m G.v h h 1.f 7.G.C.a.q.N.m.N.f.=.,.d...[ 9.#.o.:.1.f.g.h.J.K.Z.h.N.f.B.H.G.C.f.8.+.6.8.G.^.E.E.C.i.r.e. XN M p.1 < > ; @ ",
"; ; < W.J t 8 V $.8 Q 0.m.m.C.Y.C.N.9.O.h.d./ N ,.z.f.7.7.:.:.<.a.h.J.I.K.h.J.J.E.L.B.h.h.N.9.Y.Y.C.N.w.@.' G P.s M i.1 : ; @ + ",
"% * q I.O.G j g.+.q Q 2.#.3.n.C.G.G.8.K g.s._ 3 g | d.F.g.j.9.,.+.+.o.@.1.1.J.U._.F.r.a.B.d.H.!.Q.^.G.f.o.h h s.4 ] =.q , : % O ",
"@ % V f.b t w }.d.D w.a.8.b.b.q.0.8.q.m.^.&XI.1 < 4 g ` } } [ ) g n f 3 f f ' ' M G ,.z.J.y.U.E.Q.G.a.%.N ) k.) w ].j 2 1 , @ X ",
"+ $ 6.$Xa.H : A +.8 $.N.f.N.b.b.q.m.N.n.0.7XwXJ.g w 2 8 3 g ..x./.I.K.x.d.{ G 5 4 1 w J <.9.g.g.L.h.&./ N c.} x I.y.4 2 > > $ X ",
"@ 7 S.Q.6.f.M M g.* = e C #.0.b.m.b.N.b.b.C.8XeXOX%.w 2 ) `.P.|.-X X;X;X;X-X|.{ M ) j w F H J $.9.$.n G p.x w k.t.4 2 4 1 < $ O ",
"@ r B.U.:.9.] g ].y.8 7 i C P Y E 2.8.8.0.b.n.$X8XW.D.s.d.q < 8 _ %.4 3 g  .u.k.K. X X(.S G J 8.$.j D [ 8 w A.d.2 q 1 < > < % + ",
"# : 7.>X$.3.#.h x }.` ` &.o.$.3.3.-.! R E ! ~ ~ R V.Q.V.V * : q m 9.m * ; * > < 3 5 5 1.I.' g.f.J ' %.f w K.1.w 1 1 1 < , * + + ",
"+ + = -.n.a a & + 9 ! 6 6 @ 6 9 u b L L I U U E U U A J Q e % 6 q e 4.$ @ @ @ O O + + , 2.9 a 6 B e @ t , <.i.g.<.h < * % $ + + ",
"$ * * ; :X>X8.6.n < <.g.r < q v v Z R R W E 2.4.4.4.n.3.f.B.2 q v Z a.v : : ; * # * : m.f.i v H t % * q j > > 8 <.R.S.3.7 # @ + ",
": : 1 s ` eX7X~.W.` c.4X|.k z { r.p.l.h.U.E.E.!.XXXX^.Y.i.+Xt.) =.7.[.p.s 5 5 5 s g ,X<Xn ' j e.2 < 1 1 D p.a.%.%.x s r.&X8 @ X ",
"* : 1 2 s =.iX!.!.,.x y.-X}.D w x O.s.&.=.h.U.W.{.OX~.Q.M.wX|.D G o.Q.h > * * # # T $.< < q 8 7 # % # # # > > 1 w c.| ;.u.c.; X ",
"* : < 2 2 s 7XeXm.o.w A.j `.+Xp.N S ] O.S M O.J o.$.3.0.3.:X[.e 8 8.x * ; * ; * ; M.*.n r r s S > : ; ; ; ; > > : r 9.F D r.1   ",
"+ @ % % * < #.yX3.H r q.; * h o.+.Y h 7 q 8 q v r V F 3.2.>X[.j j.y.5 w 5 5 d d d c ;.).%X+X).).)./ s s 5 5 5 3 8 > x J x *.; + ",
"* * : : : y 3.iX4.J O.*.< > > > > w *.'.7.S h v n S @.m.B.wXA.F P.7.9.*.o.V f 7 ; * ; # ; w _ A.[.`.s.f 1 1 1 8 1 7 r j v @.; X ",
"@ * < 1 8 o.2XyXf.x j.j 1 > > < < < 7 j *.M.9.F > < Y Q b.OXb.V v j v S Y o.#.#.+.H q # # ; ; ; r 8.T v ; # # ; ; : > j F J ; o ",
"@ * < 4 g @XyXXX*.P.y.2 2 2 w s 5 s d c s d z Z.] j a.!.{.+XO.w f r w h j j G O.r.s.s.e.1 ; ; ; ; , Z #.v e ; @ # # * 7 o.h ; o ",
"@ : 2 { <XuX8X6X<Xu.l c z ^ ^ ^ z z d 5 2 ) [ A.w w o.a.g.D O.G 7 ; # # ; ; # # # # # h ; # # # # # # 8 :.o.$.* # # # # j # # o ",
"+ @ < ] }.<X1Xi.x g c c 5 d 2 1 < ; ; * * # r 3.v.V.Q.V.T y 8 y V q @ @ @ @ # # @ @ @ @ @ . + . . @ . . * Y L * + . + + @ # # o ",
"* : < 2 3 s s 5 2 1 < > > ; * * * # # ; # # # @ @ @ 7 H B.:XQ.8.r S 6.x > ; > > > 1 1 > > ; ; ; ; > > > 7 +XS.1 > : : * # # @   ",
"@ : > < 2 4 1 < > ; * # * % # # * # ; ; ; ; : > < < < 1 8 w %.[.0X:X=.&.).t.5 2 1 1 1 1 1 1 1 1 2 8 > 7 7.+Xx 1 1 > 1 > < 1 #   ",
"% : > 1 < ; ; ; * * : : ; ; : > > > > > < > > ; > > > > < > ; > 7 j $.7.$.6.M.J > : > , > 7 > > > > 1 d +X=.w 1 1 1 < 1 1 1 #   ",
"* : , > < > < 1 1 < > > < < < < > > > > > ; ; > ; * ; # * ; > > 7 > > 7 j o.7.Q.q : : : ; * : 6 > > > > : : * ; ; : : : ; ; @   ",
"% * * * * * * * * @ @ @ @ @ @ + o @ @ + + o o o o o o o o + @ + @ @ @ @ @ @ 7 v.i @ # # # # # # # # # # @ # @ # # # # # @ @ o   ",
"+ + X O O O . O + + X X . .                           .                 X   o - @ X X o o o o X X . . . o o o o o + X X o       "
};
